# xmcd
#
# Track frame offsets:
#	150
#	15975
#	34725
#	51450
#	69000
#	83550
#	105000
#	119250
#	131100
#	144975
#	160425
#	180525
#	196175
#	201075
#
# Disc length: 2930 seconds
#
# Revision: 1
# Processed by: cddbd v1.5.2PL0 Copyright (c) Steve Scherf et al.
# Submitted via: audiograbber 1.83.01
#
DISCID=ae0b700e
DTITLE=Sylvia Tyson - You Were On My Mind
DYEAR=1989
DGENRE=Country
TTITLE0=Pepere's Mill
TTITLE1=Slow-Moving Heart
TTITLE2=Rhythm Of The Road
TTITLE3=Walking On The Moon
TTITLE4=Thrown To The Wolves
TTITLE5=The Night The Chinese Restaurant Burned Down
TTITLE6=You Were On My Mind
TTITLE7=Sleep On My Shoulder
TTITLE8=Trucker's Cafe
TTITLE9=River Road
TTITLE10=Last Call
TTITLE11=Le Moulin À Pépere
TTITLE12=Reprise
TTITLE13=The Blind Fiddler's Waltz
EXTD=
EXTT0=
EXTT1=
EXTT2=
EXTT3=
EXTT4=
EXTT5=
EXTT6=
EXTT7=
EXTT8=
EXTT9=
EXTT10=
EXTT11=
EXTT12=
EXTT13=
PLAYORDER=
